#!OML:ASF I:\salsa\salsa 7_09\Patient 1\Session 1\dancerfemale.ASF
:FULLY-SPECIFIED
:DEGREES
1877
root 15.9875 15.5051 7.73569 -211.725 608.211 198.704
lowerback 18.3113 4.09894 2.13052
upperback 1.01889 5.82241 0.176625
thorax -8.94234 2.68233 -2.49019
lowerneck 6.44074 -12.1397 -12.9099
upperneck 4.07341 -17.1256 4.18346
head 1.8127 -8.77489 3.40782
rclavicle -3.27995e-014 0
rhumerus 2.10103 -11.8863 -69.8907
rradius 48.3001
rwrist 23.5058
rhand -3.75541 -313.004
rfingers 7.12502
rthumb 21.9888 18.2254
lclavicle -3.27995e-014 0
lhumerus -17.325 11.3125 73.5145
lradius 87.2002
lwrist -25.709
lhand -22.8945 -338.322
lfingers 7.12502
lthumb 3.545 411.629
rfemur -20.5832 -12.7889 6.1741
rtibia 46.4067
rfoot -21.909 -10.0859
rtoes -0.259292
lfemur 3.52857 -2.11941 -34.788
ltibia 34.0541
lfoot -22.2718 -7.39016
ltoes 12.5507
1878
root 16.1474 15.5152 7.79407 -211.215 608.073 197.841
lowerback 18.0176 3.73226 3.76219
upperback 1.2511 5.60162 -0.357768
thorax -8.3215 2.52675 -3.88188
lowerneck 6.80156 -12.0427 -13.2461
upperneck 3.94298 -17.1036 5.34509
head 1.67995 -8.75865 3.47174
rclavicle 3.21037e-014 -1.59028e-014
rhumerus 1.27296 -11.401 -68.9562
rradius 48.9461
rwrist 22.7819
rhand -3.24991 -313.679
rfingers 7.12502
rthumb 22.4741 17.6086
lclavicle 3.21037e-014 -1.59028e-014
lhumerus -15.4168 10.7837 75.5754
lradius 88.8256
lwrist -25.1934
lhand -23.99 -339.29
lfingers 7.12502
lthumb 2.48702 410.675
rfemur -20.4022 -12.6722 6.28982
rtibia 48.755
rfoot -20.4311 -8.94997
rtoes -3.28075
lfemur 3.33683 -1.62437 -34.6783
ltibia 34.0831
lfoot -21.9645 -7.87262
ltoes 12.8557
1879
root 16.2997 15.5209 7.84068 -210.867 607.998 197.569
lowerback 17.4886 3.41748 4.99282
upperback 1.30197 5.35097 -0.995877
thorax -7.81786 2.37666 -5.15246
lowerneck 7.06472 -11.8509 -13.5537
upperneck 3.88238 -16.9348 6.31942
head 1.71337 -8.68308 3.81798
rclavicle -1.2424e-015 -2.94201e-014
rhumerus 0.904939 -11.1137 -68.5772
rradius 49.3265
rwrist 21.8674
rhand -3.16229 -314.216
rfingers 7.12502
rthumb 22.5582 17.0817
lclavicle -1.2424e-015 -2.94201e-014
lhumerus -14.166 10.0296 77.2903
lradius 90.7993
lwrist -24.5784
lhand -24.7762 -339.743
lfingers 7.12502
lthumb 1.72776 410.23
rfemur -20.7246 -12.6284 6.43888
rtibia 51.176
rfoot -16.8944 -7.42507
rtoes -14.0327
lfemur 2.76133 -1.03179 -34.6408
ltibia 34.0624
lfoot -21.5276 -8.50344
ltoes 13.2156
1880
root 16.4451 15.5245 7.87359 -211.129 607.878 198.26
lowerback 16.8217 3.24415 5.61679
upperback 1.17789 5.15199 -1.77142
thorax -7.47821 2.2657 -6.2492
lowerneck 7.40757 -11.6924 -13.4837
upperneck 3.87533 -16.797 7.14431
head 1.70768 -8.62333 4.07694
rclavicle -5.70015e-014 -2.38542e-015
rhumerus 0.671849 -11.2115 -68.5917
rradius 49.809
rwrist 20.8598
rhand -3.27716 -314.612
rfingers 7.12502
rthumb 22.4479 16.6724
lclavicle -5.70015e-014 -2.38542e-015
lhumerus -13.4641 8.84413 78.7991
lradius 92.9865
lwrist -23.9861
lhand -26.0846 -339.812
lfingers 7.12502
lthumb 0.464074 410.167
rfemur -21.419 -12.6319 6.35957
rtibia 53.7306
rfoot -14.6303 -6.1095
rtoes -20.3154
lfemur 1.92759 -0.415601 -34.9016
ltibia 33.9649
lfoot -21.1183 -9.10988
ltoes 12.3575
1881
root 16.5796 15.5297 7.89723 -211.893 607.637 199.66
lowerback 16.0062 3.04271 5.76851
upperback 1.00573 4.81094 -2.62717
thorax -7.17302 2.09745 -7.13599
lowerneck 7.71675 -11.4396 -13.2425
upperneck 3.80997 -16.5077 7.8169
head 1.64549 -8.4856 4.27804
rclavicle 5.66536e-015 -6.75868e-015
rhumerus 0.762852 -11.2081 -68.9895
rradius 50.366
rwrist 19.7874
rhand -3.44499 -315.032
rfingers 7.12502
rthumb 22.2868 16.2331
lclavicle 5.66536e-015 -6.75868e-015
lhumerus -13.2738 7.7036 80.0413
lradius 95.3392
lwrist -23.6215
lhand -27.0241 -339.595
lfingers 7.12502
lthumb -0.44341 410.384
rfemur -22.2218 -12.7279 6.02747
rtibia 56.3805
rfoot -13.6888 -5.25034
rtoes -21.8873
lfemur 1.00529 0.224622 -35.4228
ltibia 33.7396
lfoot -20.7334 -9.73222
ltoes 10.7561
1882
root 16.6979 15.5326 7.9186 -213.066 607.312 201.769
lowerback 14.834 2.85122 5.41983
upperback 0.77896 4.38106 -3.49847
thorax -6.7914 1.90227 -7.71935
lowerneck 8.02648 -11.0798 -13.0963
upperneck 3.72986 -16.0814 8.51636
head 1.57165 -8.28272 4.50678
rclavicle 6.4779e-014 -2.50469e-014
rhumerus 1.14432 -11.0902 -69.5971
rradius 51.0982
rwrist 18.584
rhand -3.59219 -315.452
rfingers 7.12502
rthumb 22.1455 15.7965
lclavicle 6.4779e-014 -2.50469e-014
lhumerus -13.2555 6.94928 81.1688
lradius 97.6796
lwrist -23.2862
lhand -27.324 -340.03
lfingers 7.12502
lthumb -0.732979 409.948
rfemur -23.1724 -12.985 5.45248
rtibia 58.9892
rfoot -13.1773 -4.71704
rtoes -21.984
lfemur -0.0838709 1.10675 -36.1776
ltibia 33.3799
lfoot -20.2882 -10.6545
ltoes 10.8152
